<mxfile host="app.diagrams.net" modified="2021-05-25T09:25:21.901Z" agent="5.0 (Macintosh)" etag="czUAveWAIjk7wygAkI9M" version="14.6.11" type="github">
  <diagram name="Page-1" id="c4acf3e9-155e-7222-9cf6-157b1a14988f">
    <mxGraphModel dx="2646" dy="1650" grid="1" gridSize="10" guides="1" tooltips="1" connect="1" arrows="1" fold="1" page="1" pageScale="1" pageWidth="850" pageHeight="1100" background="#ffffff" math="0" shadow="0">
      <root>
        <mxCell id="0" />
        <mxCell id="1" parent="0" />
        <mxCell id="17acba5748e5396b-1" value="&lt;b&gt;&lt;font style=&quot;font-size: 12px&quot;&gt;Base metamodel&lt;/font&gt;&lt;/b&gt;" style="shape=umlFrame;whiteSpace=wrap;html=1;rounded=0;shadow=0;comic=0;labelBackgroundColor=none;strokeWidth=1;fontFamily=Verdana;fontSize=10;align=center;width=130;height=30;fillColor=#f5f5f5;strokeColor=#666666;fontColor=#333333;" parent="1" vertex="1">
          <mxGeometry x="-470" y="-1040" width="160" height="100" as="geometry" />
        </mxCell>
        <mxCell id="NIMj05YKIouRd0gM8ZDB-1" value="&lt;b&gt;&lt;font style=&quot;font-size: 12px&quot;&gt;Process editor&lt;/font&gt;&lt;/b&gt;" style="shape=umlFrame;whiteSpace=wrap;html=1;rounded=0;shadow=0;comic=0;labelBackgroundColor=none;strokeWidth=1;fontFamily=Verdana;fontSize=10;align=center;width=120;height=30;fillColor=#f5f5f5;strokeColor=#666666;fontColor=#333333;" parent="1" vertex="1">
          <mxGeometry x="-245" y="-890" width="160" height="110" as="geometry" />
        </mxCell>
        <mxCell id="HCxnnW7y-VYpG5oS4Wv8-4" style="edgeStyle=none;rounded=0;orthogonalLoop=1;jettySize=auto;html=1;endArrow=block;endFill=0;" parent="1" source="HCxnnW7y-VYpG5oS4Wv8-2" target="17acba5748e5396b-1" edge="1">
          <mxGeometry relative="1" as="geometry" />
        </mxCell>
        <mxCell id="HCxnnW7y-VYpG5oS4Wv8-2" value="&lt;b&gt;&lt;font style=&quot;font-size: 12px&quot;&gt;Acme metamodel&lt;/font&gt;&lt;/b&gt;" style="shape=umlFrame;whiteSpace=wrap;html=1;rounded=0;shadow=0;comic=0;labelBackgroundColor=none;strokeWidth=1;fontFamily=Verdana;fontSize=10;align=center;width=130;height=30;fillColor=#f5f5f5;strokeColor=#666666;fontColor=#333333;" parent="1" vertex="1">
          <mxGeometry x="-470" y="-890" width="160" height="110" as="geometry" />
        </mxCell>
        <mxCell id="HCxnnW7y-VYpG5oS4Wv8-6" style="rounded=0;orthogonalLoop=1;jettySize=auto;html=1;" parent="1" source="E4Jmg9HzMqRdT5dlmyXl-6" target="HCxnnW7y-VYpG5oS4Wv8-2" edge="1">
          <mxGeometry relative="1" as="geometry">
            <mxPoint x="-390" y="-743" as="sourcePoint" />
            <mxPoint x="-486.949152542373" y="-930" as="targetPoint" />
          </mxGeometry>
        </mxCell>
        <mxCell id="HCxnnW7y-VYpG5oS4Wv8-8" value="extends" style="text;html=1;align=center;verticalAlign=middle;resizable=0;points=[];autosize=1;strokeColor=none;" parent="1" vertex="1">
          <mxGeometry x="-390" y="-920" width="60" height="20" as="geometry" />
        </mxCell>
        <mxCell id="E4Jmg9HzMqRdT5dlmyXl-1" value="&lt;b&gt;&lt;font style=&quot;font-size: 12px&quot;&gt;ProcessType editor&lt;/font&gt;&lt;/b&gt;" style="shape=umlFrame;whiteSpace=wrap;html=1;rounded=0;shadow=0;comic=0;labelBackgroundColor=none;strokeWidth=1;fontFamily=Verdana;fontSize=10;align=center;width=150;height=30;fillColor=#f5f5f5;strokeColor=#666666;fontColor=#333333;" vertex="1" parent="1">
          <mxGeometry x="-695" y="-890" width="160" height="110" as="geometry" />
        </mxCell>
        <mxCell id="E4Jmg9HzMqRdT5dlmyXl-4" value="" style="ellipse;whiteSpace=wrap;html=1;aspect=fixed;align=center;strokeWidth=2;" vertex="1" parent="1">
          <mxGeometry x="-704" y="-836" width="20" height="20" as="geometry" />
        </mxCell>
        <mxCell id="E4Jmg9HzMqRdT5dlmyXl-6" value="&lt;b&gt;Acme model&lt;/b&gt;" style="rounded=0;whiteSpace=wrap;html=1;align=center;" vertex="1" parent="1">
          <mxGeometry x="-470" y="-740" width="160" height="90" as="geometry" />
        </mxCell>
        <mxCell id="E4Jmg9HzMqRdT5dlmyXl-8" value="" style="shape=note;whiteSpace=wrap;html=1;backgroundOutline=1;darkOpacity=0.05;align=center;" vertex="1" parent="1">
          <mxGeometry x="-819" y="-870.5" width="60" height="75" as="geometry" />
        </mxCell>
        <mxCell id="E4Jmg9HzMqRdT5dlmyXl-9" value="&lt;div&gt;&lt;font face=&quot;Verdana&quot;&gt;&lt;b&gt;&lt;font style=&quot;font-size: 12px&quot;&gt;ProcessType&lt;/font&gt;&lt;/b&gt;&lt;/font&gt;&lt;/div&gt;&lt;div&gt;&lt;font face=&quot;Verdana&quot;&gt;&lt;b&gt;&lt;font style=&quot;font-size: 12px&quot;&gt;Diagram Specification&lt;/font&gt;&lt;/b&gt;&lt;/font&gt;&lt;br&gt;&lt;/div&gt;" style="text;html=1;align=center;verticalAlign=middle;resizable=0;points=[];autosize=1;strokeColor=none;" vertex="1" parent="1">
          <mxGeometry x="-877" y="-918" width="160" height="40" as="geometry" />
        </mxCell>
        <mxCell id="E4Jmg9HzMqRdT5dlmyXl-10" value="instance of" style="text;html=1;align=center;verticalAlign=middle;resizable=0;points=[];autosize=1;strokeColor=none;" vertex="1" parent="1">
          <mxGeometry x="-390" y="-770" width="70" height="20" as="geometry" />
        </mxCell>
        <mxCell id="E4Jmg9HzMqRdT5dlmyXl-11" value="" style="shape=note;whiteSpace=wrap;html=1;backgroundOutline=1;darkOpacity=0.05;align=center;" vertex="1" parent="1">
          <mxGeometry x="-819" y="-732.5" width="60" height="75" as="geometry" />
        </mxCell>
        <mxCell id="E4Jmg9HzMqRdT5dlmyXl-12" value="&lt;div&gt;&lt;font style=&quot;font-size: 12px&quot; face=&quot;Verdana&quot;&gt;Diagram&lt;/font&gt;&lt;br&gt;&lt;/div&gt;" style="text;html=1;align=center;verticalAlign=middle;resizable=0;points=[];autosize=1;strokeColor=none;" vertex="1" parent="1">
          <mxGeometry x="-824" y="-650" width="70" height="20" as="geometry" />
        </mxCell>
        <mxCell id="E4Jmg9HzMqRdT5dlmyXl-13" value="Software Engineering ProcessType view" style="rounded=0;whiteSpace=wrap;html=1;align=center;" vertex="1" parent="1">
          <mxGeometry x="-695" y="-740" width="160" height="90" as="geometry" />
        </mxCell>
        <mxCell id="E4Jmg9HzMqRdT5dlmyXl-14" value="" style="ellipse;whiteSpace=wrap;html=1;aspect=fixed;align=center;" vertex="1" parent="1">
          <mxGeometry x="-704" y="-705" width="20" height="20" as="geometry" />
        </mxCell>
        <mxCell id="E4Jmg9HzMqRdT5dlmyXl-15" value="" style="ellipse;whiteSpace=wrap;html=1;aspect=fixed;align=center;" vertex="1" parent="1">
          <mxGeometry x="-545" y="-705" width="20" height="20" as="geometry" />
        </mxCell>
        <mxCell id="E4Jmg9HzMqRdT5dlmyXl-16" value="" style="ellipse;whiteSpace=wrap;html=1;aspect=fixed;align=center;strokeWidth=2;" vertex="1" parent="1">
          <mxGeometry x="-545" y="-836" width="20" height="20" as="geometry" />
        </mxCell>
        <mxCell id="E4Jmg9HzMqRdT5dlmyXl-17" value="" style="ellipse;whiteSpace=wrap;html=1;aspect=fixed;align=center;strokeWidth=2;" vertex="1" parent="1">
          <mxGeometry x="-254" y="-836" width="20" height="20" as="geometry" />
        </mxCell>
        <mxCell id="E4Jmg9HzMqRdT5dlmyXl-18" value="" style="ellipse;whiteSpace=wrap;html=1;aspect=fixed;align=center;strokeWidth=2;" vertex="1" parent="1">
          <mxGeometry x="-94" y="-836" width="20" height="20" as="geometry" />
        </mxCell>
        <mxCell id="E4Jmg9HzMqRdT5dlmyXl-19" value="Enacted Process view" style="rounded=0;whiteSpace=wrap;html=1;align=center;" vertex="1" parent="1">
          <mxGeometry x="-245.5" y="-740" width="160" height="90" as="geometry" />
        </mxCell>
        <mxCell id="E4Jmg9HzMqRdT5dlmyXl-20" value="" style="ellipse;whiteSpace=wrap;html=1;aspect=fixed;align=center;" vertex="1" parent="1">
          <mxGeometry x="-254.5" y="-705" width="20" height="20" as="geometry" />
        </mxCell>
        <mxCell id="E4Jmg9HzMqRdT5dlmyXl-21" value="" style="ellipse;whiteSpace=wrap;html=1;aspect=fixed;align=center;" vertex="1" parent="1">
          <mxGeometry x="-95.5" y="-705" width="20" height="20" as="geometry" />
        </mxCell>
        <mxCell id="E4Jmg9HzMqRdT5dlmyXl-22" style="rounded=0;orthogonalLoop=1;jettySize=auto;html=1;exitX=0.367;exitY=-0.007;exitDx=0;exitDy=0;exitPerimeter=0;entryX=0.383;entryY=0.993;entryDx=0;entryDy=0;entryPerimeter=0;" edge="1" parent="1" source="E4Jmg9HzMqRdT5dlmyXl-11" target="E4Jmg9HzMqRdT5dlmyXl-8">
          <mxGeometry relative="1" as="geometry">
            <mxPoint x="-820" y="-750" as="sourcePoint" />
            <mxPoint x="-785" y="-780" as="targetPoint" />
          </mxGeometry>
        </mxCell>
        <mxCell id="E4Jmg9HzMqRdT5dlmyXl-24" value="conforms to" style="text;html=1;align=center;verticalAlign=middle;resizable=0;points=[];autosize=1;strokeColor=none;" vertex="1" parent="1">
          <mxGeometry x="-795" y="-770" width="80" height="20" as="geometry" />
        </mxCell>
        <mxCell id="E4Jmg9HzMqRdT5dlmyXl-25" value="" style="shape=note;whiteSpace=wrap;html=1;backgroundOutline=1;darkOpacity=0.05;align=center;" vertex="1" parent="1">
          <mxGeometry x="-19.5" y="-870.5" width="60" height="75" as="geometry" />
        </mxCell>
        <mxCell id="E4Jmg9HzMqRdT5dlmyXl-26" value="&lt;div&gt;&lt;font face=&quot;Verdana&quot;&gt;&lt;b&gt;&lt;font style=&quot;font-size: 12px&quot;&gt;Process Diagram&lt;/font&gt;&lt;/b&gt;&lt;/font&gt;&lt;/div&gt;&lt;div&gt;&lt;font face=&quot;Verdana&quot;&gt;&lt;b&gt;&lt;font style=&quot;font-size: 12px&quot;&gt;Specification&lt;/font&gt;&lt;/b&gt;&lt;/font&gt;&lt;br&gt;&lt;/div&gt;" style="text;html=1;align=center;verticalAlign=middle;resizable=0;points=[];autosize=1;strokeColor=none;" vertex="1" parent="1">
          <mxGeometry x="-64.5" y="-918" width="130" height="40" as="geometry" />
        </mxCell>
        <mxCell id="E4Jmg9HzMqRdT5dlmyXl-27" value="" style="shape=note;whiteSpace=wrap;html=1;backgroundOutline=1;darkOpacity=0.05;align=center;" vertex="1" parent="1">
          <mxGeometry x="-18.5" y="-732.5" width="60" height="75" as="geometry" />
        </mxCell>
        <mxCell id="E4Jmg9HzMqRdT5dlmyXl-28" value="&lt;div&gt;&lt;font style=&quot;font-size: 12px&quot; face=&quot;Verdana&quot;&gt;Diagram&lt;/font&gt;&lt;br&gt;&lt;/div&gt;" style="text;html=1;align=center;verticalAlign=middle;resizable=0;points=[];autosize=1;strokeColor=none;" vertex="1" parent="1">
          <mxGeometry x="-24.5" y="-650" width="70" height="20" as="geometry" />
        </mxCell>
        <mxCell id="E4Jmg9HzMqRdT5dlmyXl-29" style="rounded=0;orthogonalLoop=1;jettySize=auto;html=1;exitX=0;exitY=0;exitDx=15;exitDy=0;exitPerimeter=0;" edge="1" parent="1" source="E4Jmg9HzMqRdT5dlmyXl-27">
          <mxGeometry relative="1" as="geometry">
            <mxPoint x="-22.5" y="-750" as="sourcePoint" />
            <mxPoint x="-3" y="-796" as="targetPoint" />
          </mxGeometry>
        </mxCell>
        <mxCell id="E4Jmg9HzMqRdT5dlmyXl-30" value="conforms to" style="text;html=1;align=center;verticalAlign=middle;resizable=0;points=[];autosize=1;strokeColor=none;" vertex="1" parent="1">
          <mxGeometry x="-3.5" y="-770" width="80" height="20" as="geometry" />
        </mxCell>
        <mxCell id="E4Jmg9HzMqRdT5dlmyXl-31" style="rounded=0;orthogonalLoop=1;jettySize=auto;html=1;exitX=1;exitY=0.5;exitDx=0;exitDy=0;startArrow=classic;startFill=1;" edge="1" parent="1" source="E4Jmg9HzMqRdT5dlmyXl-18">
          <mxGeometry relative="1" as="geometry">
            <mxPoint x="12.5" y="-722.5" as="sourcePoint" />
            <mxPoint x="-20" y="-826" as="targetPoint" />
          </mxGeometry>
        </mxCell>
        <mxCell id="E4Jmg9HzMqRdT5dlmyXl-32" style="rounded=0;orthogonalLoop=1;jettySize=auto;html=1;exitX=1;exitY=0.5;exitDx=0;exitDy=0;startArrow=classic;startFill=1;" edge="1" parent="1" source="E4Jmg9HzMqRdT5dlmyXl-21">
          <mxGeometry relative="1" as="geometry">
            <mxPoint x="-71.5" y="-695.5" as="sourcePoint" />
            <mxPoint x="-17.5" y="-695.5" as="targetPoint" />
          </mxGeometry>
        </mxCell>
        <mxCell id="E4Jmg9HzMqRdT5dlmyXl-33" style="rounded=0;orthogonalLoop=1;jettySize=auto;html=1;exitX=1;exitY=0.5;exitDx=0;exitDy=0;startArrow=classic;startFill=1;" edge="1" parent="1">
          <mxGeometry relative="1" as="geometry">
            <mxPoint x="-758.5" y="-824.75" as="sourcePoint" />
            <mxPoint x="-704.5" y="-824.75" as="targetPoint" />
          </mxGeometry>
        </mxCell>
        <mxCell id="E4Jmg9HzMqRdT5dlmyXl-34" style="rounded=0;orthogonalLoop=1;jettySize=auto;html=1;exitX=1;exitY=0.5;exitDx=0;exitDy=0;startArrow=classic;startFill=1;" edge="1" parent="1">
          <mxGeometry relative="1" as="geometry">
            <mxPoint x="-760" y="-693.75" as="sourcePoint" />
            <mxPoint x="-702" y="-694.25" as="targetPoint" />
          </mxGeometry>
        </mxCell>
        <mxCell id="E4Jmg9HzMqRdT5dlmyXl-35" style="rounded=0;orthogonalLoop=1;jettySize=auto;html=1;" edge="1" parent="1">
          <mxGeometry relative="1" as="geometry">
            <mxPoint x="-615" y="-740" as="sourcePoint" />
            <mxPoint x="-615" y="-780" as="targetPoint" />
          </mxGeometry>
        </mxCell>
        <mxCell id="E4Jmg9HzMqRdT5dlmyXl-36" value="instance of" style="text;html=1;align=center;verticalAlign=middle;resizable=0;points=[];autosize=1;strokeColor=none;" vertex="1" parent="1">
          <mxGeometry x="-615" y="-770" width="70" height="20" as="geometry" />
        </mxCell>
        <mxCell id="E4Jmg9HzMqRdT5dlmyXl-37" style="rounded=0;orthogonalLoop=1;jettySize=auto;html=1;" edge="1" parent="1">
          <mxGeometry relative="1" as="geometry">
            <mxPoint x="-158.5" y="-740" as="sourcePoint" />
            <mxPoint x="-158.5" y="-780" as="targetPoint" />
          </mxGeometry>
        </mxCell>
        <mxCell id="E4Jmg9HzMqRdT5dlmyXl-38" value="instance of" style="text;html=1;align=center;verticalAlign=middle;resizable=0;points=[];autosize=1;strokeColor=none;" vertex="1" parent="1">
          <mxGeometry x="-158.5" y="-770" width="70" height="20" as="geometry" />
        </mxCell>
        <mxCell id="E4Jmg9HzMqRdT5dlmyXl-39" style="rounded=0;orthogonalLoop=1;jettySize=auto;html=1;exitX=1;exitY=0.5;exitDx=0;exitDy=0;startArrow=classic;startFill=1;" edge="1" parent="1">
          <mxGeometry relative="1" as="geometry">
            <mxPoint x="-309" y="-824.5" as="sourcePoint" />
            <mxPoint x="-255" y="-824.5" as="targetPoint" />
          </mxGeometry>
        </mxCell>
        <mxCell id="E4Jmg9HzMqRdT5dlmyXl-40" style="rounded=0;orthogonalLoop=1;jettySize=auto;html=1;exitX=1;exitY=0.5;exitDx=0;exitDy=0;startArrow=classic;startFill=1;" edge="1" parent="1">
          <mxGeometry relative="1" as="geometry">
            <mxPoint x="-309.5" y="-694.5" as="sourcePoint" />
            <mxPoint x="-255.5" y="-694.5" as="targetPoint" />
          </mxGeometry>
        </mxCell>
        <mxCell id="E4Jmg9HzMqRdT5dlmyXl-41" style="rounded=0;orthogonalLoop=1;jettySize=auto;html=1;exitX=1;exitY=0.5;exitDx=0;exitDy=0;startArrow=classic;startFill=1;" edge="1" parent="1">
          <mxGeometry relative="1" as="geometry">
            <mxPoint x="-524" y="-825.5" as="sourcePoint" />
            <mxPoint x="-470" y="-825.5" as="targetPoint" />
          </mxGeometry>
        </mxCell>
        <mxCell id="E4Jmg9HzMqRdT5dlmyXl-42" style="rounded=0;orthogonalLoop=1;jettySize=auto;html=1;exitX=1;exitY=0.5;exitDx=0;exitDy=0;startArrow=classic;startFill=1;" edge="1" parent="1">
          <mxGeometry relative="1" as="geometry">
            <mxPoint x="-524.5" y="-695.5" as="sourcePoint" />
            <mxPoint x="-470.5" y="-695.5" as="targetPoint" />
          </mxGeometry>
        </mxCell>
      </root>
    </mxGraphModel>
  </diagram>
</mxfile>
